<?xml version="1.0" standalone="no"?>
<!DOCTYPE svg PUBLIC "-//W3C//DTD SVG 20010904//EN"
 "http://www.w3.org/TR/2001/REC-SVG-20010904/DTD/svg10.dtd">
<svg version="1.0" xmlns="http://www.w3.org/2000/svg"
 width="460.000000pt" height="460.000000pt" viewBox="0 0 460.000000 460.000000"
 preserveAspectRatio="xMidYMid meet">
<metadata>
Created by potrace 1.14, written by Peter Selinger 2001-2017
</metadata>
<g transform="translate(0.000000,460.000000) scale(0.100000,-0.100000)"
fill="#000000" stroke="none">
<path d="M3234 2718 c-3 -4 -13 -8 -23 -8 -38 0 -56 -37 -57 -121 -1 -43 3
-79 7 -79 15 0 49 -43 49 -62 0 -14 5 -17 23 -13 17 5 24 2 24 -9 0 -10 -10
-16 -26 -16 -23 -1 -24 -2 -8 -11 24 -14 21 -28 -8 -35 -14 -3 -22 -10 -19
-15 3 -5 0 -9 -5 -9 -6 0 -11 8 -11 18 0 14 -2 15 -10 2 -14 -22 -12 -43 3
-34 6 4 5 -1 -5 -11 -15 -16 -15 -19 10 -42 l27 -25 -28 7 c-23 6 -27 4 -27
-13 0 -12 -5 -24 -12 -28 -7 -5 -5 -11 7 -21 18 -12 18 -13 -4 -13 -16 0 -21
-4 -18 -15 4 -8 2 -17 -4 -21 -6 -3 -8 -13 -5 -21 4 -9 -1 -17 -14 -20 -13 -3
-22 -17 -26 -38 -3 -19 -12 -36 -19 -39 -8 -3 -11 -13 -8 -27 5 -18 3 -20 -16
-14 -18 5 -22 3 -21 -12 3 -24 -10 -63 -21 -63 -5 0 -9 -7 -9 -15 0 -9 -6 -18
-14 -21 -23 -9 -27 -34 -11 -68 10 -19 12 -32 5 -34 -5 -2 -10 -11 -10 -20 0
-12 -3 -13 -12 -4 -17 17 -28 15 -29 -5 0 -14 -3 -13 -11 5 -6 12 -16 21 -22
19 -16 -6 -12 -105 11 -242 12 -73 17 -127 12 -137 -5 -9 -9 -26 -9 -37 0 -15
-10 -23 -37 -30 -21 -6 -46 -11 -55 -11 -37 0 -48 -11 -36 -33 6 -12 19 -27
28 -34 16 -11 16 -17 1 -80 -9 -37 -20 -74 -24 -80 -5 -8 -3 -13 5 -13 7 0
-10 -22 -38 -48 -66 -61 -90 -80 -80 -64 16 27 -6 32 -42 10 -20 -12 -39 -26
-40 -30 -2 -5 -9 -5 -15 -1 -8 5 -8 2 0 -9 7 -8 12 -17 10 -19 -1 -2 4 2 11
10 6 8 20 16 30 18 60 10 42 -45 -23 -72 -39 -16 -43 -20 -34 -37 9 -18 8 -18
-10 -8 -23 12 -24 10 -34 -38 -5 -23 8 -31 16 -9 4 9 8 9 14 0 4 -6 27 -14 49
-17 22 -4 56 -11 75 -16 19 -6 34 -10 35 -10 7 0 -17 84 -26 90 -6 4 -15 24
-20 44 -7 34 -6 38 16 46 13 5 24 14 24 19 0 13 29 41 41 41 6 0 8 -4 5 -9 -3
-5 3 -11 14 -14 16 -4 18 -2 11 11 -9 16 14 72 30 72 9 0 21 -79 14 -91 -4 -5
-15 -9 -26 -9 -35 0 -15 -34 21 -35 28 -1 60 -37 54 -62 -4 -13 -1 -30 5 -37
7 -8 9 -25 5 -40 -4 -17 -2 -26 6 -26 10 0 10 -3 0 -15 -12 -14 -7 -19 14 -16
4 1 14 -4 22 -10 21 -18 -2 -39 -42 -39 -19 0 -34 -4 -34 -9 0 -5 19 -8 42 -7
32 2 44 7 46 20 3 14 11 17 33 14 28 -4 29 -3 31 41 2 68 -2 95 -15 103 -20
12 -37 9 -37 -7 0 -8 -4 -15 -10 -15 -17 0 -11 25 10 40 14 10 16 16 7 22 -9
6 -9 8 0 8 7 0 10 7 6 16 -5 13 -2 15 17 9 16 -5 21 -4 18 6 -3 8 -14 13 -24
11 -18 -2 -18 -2 -1 12 10 8 19 22 19 33 3 54 -14 252 -23 276 -8 19 -8 31 -1
40 7 8 7 29 1 62 -5 28 -9 68 -8 90 0 22 -2 78 -5 125 l-5 85 15 -60 c8 -33
16 -107 19 -165 3 -58 11 -161 17 -230 12 -115 15 -125 37 -136 13 -7 27 -17
31 -23 5 -8 14 -9 33 -2 19 7 27 7 27 0 0 -6 4 -7 10 -4 13 8 33 46 23 43 -8
-3 -27 10 -99 67 l-26 20 17 80 c12 60 15 120 12 240 -2 88 -7 167 -11 176 -5
12 -1 18 14 22 28 7 151 -13 144 -24 -3 -5 -14 -9 -25 -9 -23 0 -24 -5 -2 -34
18 -23 18 -23 35 -4 16 19 17 19 34 -6 12 -19 15 -40 12 -77 -3 -31 -1 -48 5
-46 12 4 36 89 37 129 0 41 10 58 35 58 30 0 40 -15 54 -75 16 -71 29 -229 20
-233 -5 -2 -1 -14 7 -28 9 -13 14 -35 12 -49 -3 -13 -1 -26 4 -27 5 -2 4 -17
-2 -35 -8 -21 -8 -44 -2 -70 11 -42 9 -177 -3 -264 -6 -48 -4 -63 15 -101 26
-52 24 -78 -8 -94 -12 -6 -19 -14 -14 -18 4 -5 -10 2 -31 14 l-38 22 -19 -22
c-24 -27 -24 -24 -5 -59 8 -16 26 -32 42 -35 15 -4 40 -16 55 -27 40 -29 76
-119 47 -119 -5 0 -7 5 -3 12 4 7 3 8 -4 4 -8 -5 -9 -13 -3 -24 5 -9 18 -38
30 -64 12 -27 26 -48 32 -48 6 0 7 6 3 13 -4 6 5 1 19 -12 46 -42 29 -5 -23
51 -52 56 -52 70 0 43 28 -14 74 -90 68 -113 -1 -4 2 -22 6 -41 6 -25 11 -30
18 -20 7 10 8 8 3 -8 -4 -14 0 -26 11 -35 10 -7 41 -37 70 -66 51 -52 52 -53
66 -33 8 12 17 19 20 16 3 -3 13 5 24 17 16 19 16 20 1 9 -26 -20 -31 -7 -12
31 22 42 55 78 72 78 8 0 16 7 20 16 3 8 11 13 19 10 12 -5 58 42 97 98 17 25
21 25 116 24 54 0 103 2 110 6 7 5 9 1 5 -8 -4 -9 -1 -16 6 -16 6 0 14 9 17
20 6 23 23 27 23 6 0 -8 15 -17 36 -21 28 -5 39 -13 47 -36 6 -16 15 -29 20
-29 10 0 -1 100 -13 115 -14 17 -60 103 -60 111 0 4 9 -2 20 -14 25 -27 34
-28 21 -3 -10 18 -30 43 -78 98 -27 31 -27 30 -8 49 21 22 19 28 -14 40 -18 7
-31 21 -35 40 -8 30 -22 44 -44 44 -10 0 -10 -5 -2 -22 10 -20 8 -20 -13 4
-17 18 -31 25 -46 21 -11 -3 -18 -9 -15 -15 3 -5 14 -6 24 -3 23 7 21 -17 -2
-45 -15 -17 -15 -19 5 -24 22 -6 22 -7 3 -21 -11 -8 -26 -15 -33 -15 -7 0 -10
-6 -7 -15 7 -18 -2 -19 -20 -3 -10 10 -11 19 -3 35 6 13 14 23 19 23 5 0 6 5
3 10 -4 6 -12 4 -22 -5 -9 -9 -22 -14 -29 -11 -8 3 -14 1 -14 -4 0 -6 -7 -10
-15 -10 -8 0 -16 -8 -16 -17 -1 -10 -5 0 -9 22 -8 43 5 85 27 85 7 0 13 -4 13
-10 0 -5 5 -10 10 -10 19 0 10 38 -17 69 -25 28 -63 45 -48 21 4 -6 10 -8 15
-5 4 3 6 -5 3 -16 -4 -12 -14 -24 -25 -26 -10 -3 -18 -13 -18 -23 0 -10 -9
-20 -21 -23 -16 -4 -25 2 -41 29 -11 19 -24 34 -29 34 -5 0 -9 9 -9 20 0 15 7
20 26 20 18 0 28 6 31 21 3 12 11 18 19 15 9 -3 14 1 14 12 0 13 3 12 16 -6
20 -29 84 -32 84 -3 0 10 -7 21 -15 25 -8 3 -15 13 -15 23 0 9 -9 26 -19 37
-20 21 -20 21 5 22 13 1 24 -2 24 -7 0 -5 5 -9 11 -9 7 0 9 10 7 25 -3 13 0
26 6 29 7 3 6 8 -4 15 -8 5 -17 8 -21 5 -4 -2 -11 1 -15 7 -3 6 -1 15 5 19 8
5 4 12 -13 24 -24 15 -27 15 -47 -1 -12 -10 -29 -27 -38 -37 -9 -10 -25 -28
-36 -40 -11 -11 -21 -29 -22 -40 -5 -33 -22 -36 -27 -4 -1 7 -7 23 -14 34 -6
12 -8 25 -4 29 4 5 1 5 -6 1 -7 -4 -10 -11 -7 -16 3 -4 -2 -11 -11 -14 -9 -4
-17 -5 -18 -4 -20 38 -27 59 -29 85 -3 22 -16 43 -42 68 -22 19 -33 35 -25 35
7 0 21 -7 31 -16 10 -9 23 -13 29 -9 9 6 9 10 -1 16 -9 6 -10 9 -2 9 6 0 18 3
27 6 11 4 16 1 16 -10 0 -11 9 -16 30 -16 17 0 30 -4 30 -9 0 -6 15 -7 34 -4
23 4 48 -2 84 -19 59 -29 60 -18 1 13 -22 11 -49 29 -59 39 -11 11 -28 20 -37
20 -12 0 -14 3 -6 8 8 5 5 20 -10 52 l-22 45 -60 -3 c-33 -2 -64 -7 -70 -12
-5 -4 -20 -10 -32 -13 -17 -4 -23 -1 -24 11 0 12 -3 10 -9 -5 -5 -13 -15 -23
-21 -23 -17 0 -3 92 16 103 12 6 15 30 15 114 0 104 0 105 -18 82 l-19 -22 -5
21 c-4 16 -2 22 9 22 9 0 13 6 10 14 -7 19 19 29 43 16 10 -5 28 -23 40 -40
12 -16 27 -30 34 -30 16 0 14 49 -3 59 -7 5 -17 27 -21 50 -5 26 -4 38 3 34 6
-4 8 3 4 19 -6 24 -4 26 40 33 33 5 55 15 75 37 15 16 25 34 22 39 -3 5 0 9 5
9 6 0 11 -5 11 -11 0 -6 14 -28 30 -49 17 -21 30 -41 30 -44 0 -11 45 -76 53
-76 17 0 4 30 -53 123 -33 53 -60 104 -60 111 0 8 -4 17 -10 21 -5 3 -9 61 -8
133 1 119 -8 181 -38 256 -7 18 -8 18 -21 1 -7 -10 -16 -15 -20 -10 -5 4 -2
10 5 12 13 5 16 31 6 57 -9 23 -22 20 -27 -6 -4 -21 -5 -20 -11 7 -4 17 -18
42 -31 57 -19 23 -35 28 -89 34 -36 4 -66 12 -66 17 0 7 -4 7 -12 -1 -7 -7
-21 -12 -32 -12 -21 1 -21 1 -2 15 19 15 19 15 -2 15 -12 0 -22 -4 -22 -10 0
-5 -9 -10 -20 -10 -11 0 -20 6 -20 14 0 11 -8 12 -35 6 -32 -7 -34 -6 -24 11
8 15 21 19 69 19 52 0 60 2 60 19 0 21 -63 81 -84 81 -8 0 -12 7 -10 18 5 21
-2 31 -46 64 -34 26 -104 35 -116 16z m103 -94 c-3 -3 -12 -4 -19 -1 -8 3 -5
6 6 6 11 1 17 -2 13 -5z m203 -598 c0 -11 -19 -15 -25 -6 -3 5 1 10 9 10 9 0
16 -2 16 -4z m-319 -56 c6 0 -2 -11 -16 -25 -14 -14 -25 -32 -25 -40 0 -8 -5
-15 -11 -15 -6 0 -8 9 -4 20 4 13 2 20 -7 20 -8 0 -9 3 -3 8 6 4 19 21 30 37
16 24 20 27 23 13 2 -10 8 -18 13 -18z m-74 -76 c-3 -3 -12 -4 -19 -1 -8 3 -5
6 6 6 11 1 17 -2 13 -5z m173 -94 c0 -5 -4 -10 -10 -10 -5 0 -10 5 -10 10 0 6
5 10 10 10 6 0 10 -4 10 -10z m140 -61 c0 -18 -4 -28 -10 -24 -5 3 -10 20 -10
36 0 18 4 28 10 24 6 -3 10 -20 10 -36z m-178 -1 c-7 -7 -12 -8 -12 -2 0 14
12 26 19 19 2 -3 -1 -11 -7 -17z m-65 -30 c-3 -7 -5 -2 -5 12 0 14 2 19 5 13
2 -7 2 -19 0 -25z m220 -75 c-2 -16 -4 -5 -4 22 0 28 2 40 4 28 2 -13 2 -35 0
-50z m50 25 c-3 -7 -5 -2 -5 12 0 14 2 19 5 13 2 -7 2 -19 0 -25z m-627 -362
c0 -3 -4 -8 -10 -11 -5 -3 -10 -1 -10 4 0 6 5 11 10 11 6 0 10 -2 10 -4z m787
-32 c-3 -3 -12 -4 -19 -1 -8 3 -5 6 6 6 11 1 17 -2 13 -5z m33 -44 c8 -5 11
-10 5 -10 -5 0 -17 5 -25 10 -8 5 -10 10 -5 10 6 0 17 -5 25 -10z m-750 -20
c0 -5 -4 -10 -10 -10 -5 0 -10 5 -10 10 0 6 5 10 10 10 6 0 10 -4 10 -10z
m-20 -30 c0 -14 -14 -12 -28 2 -19 19 -14 30 8 18 11 -6 20 -15 20 -20z m754
-16 c16 -6 23 -44 8 -44 -5 0 -14 11 -20 25 -12 27 -12 28 12 19z m-74 -65 c0
-6 -4 -7 -10 -4 -5 3 -10 11 -10 16 0 6 5 7 10 4 6 -3 10 -11 10 -16z m-40
-15 c0 -8 6 -14 13 -14 6 0 19 -5 27 -10 13 -8 11 -12 -8 -26 -17 -12 -21 -19
-13 -27 15 -15 14 -50 -1 -41 -7 4 -8 3 -4 -4 9 -14 -3 -15 -24 -2 -8 5 -12
12 -9 15 4 3 1 30 -6 60 -7 30 -9 53 -4 49 5 -3 9 2 9 11 0 9 5 13 10 10 6 -3
10 -13 10 -21z m150 15 c0 -8 -51 -22 -57 -15 -3 2 -2 9 1 15 7 11 56 11 56 0z
m255 -51 c0 -13 -4 -28 -8 -35 -4 -6 0 -19 9 -27 13 -14 14 -16 0 -16 -8 0
-18 5 -21 10 -3 6 -11 10 -16 10 -6 0 -8 -4 -5 -8 3 -5 -1 -9 -8 -9 -9 0 -11
10 -6 37 9 47 17 60 39 60 11 0 17 -8 16 -22z m-278 -25 c-3 -10 -5 -4 -5 12
0 17 2 24 5 18 2 -7 2 -21 0 -30z m-727 6 c0 -6 -4 -7 -10 -4 -5 3 -10 11 -10
16 0 6 5 7 10 4 6 -3 10 -11 10 -16z m-32 -1 c16 -16 15 -28 -2 -28 -7 0 -16
9 -19 20 -6 23 3 26 21 8z m572 -43 c0 -8 -4 -15 -10 -15 -5 0 -7 7 -4 15 4 8
8 15 10 15 2 0 4 -7 4 -15z m-846 -10 c-7 -16 -24 -21 -24 -6 0 8 7 13 27 20
1 1 0 -6 -3 -14z m955 -26 c-9 -17 -9 -24 0 -27 6 -2 11 -8 11 -13 0 -13 -28
1 -34 18 -4 9 1 24 10 35 22 23 29 16 13 -13z m191 -8 c-1 -13 -3 -13 -17 4
-14 17 -15 18 -9 2 3 -11 -1 -25 -10 -34 -8 -9 -14 -24 -11 -33 2 -9 -4 -22
-14 -28 -24 -15 -26 -15 -26 2 0 8 6 12 14 9 17 -7 16 -3 -3 36 -19 38 -13 61
14 54 11 -2 23 0 26 6 9 15 36 2 36 -18z m-327 4 c-3 -9 -8 -14 -10 -11 -3 3
-2 9 2 15 9 16 15 13 8 -4z m38 8 c0 -5 2 -19 5 -32 4 -20 2 -22 -10 -12 -15
13 -18 51 -4 51 4 0 8 -3 9 -7z m169 -18 c10 -26 3 -58 -10 -50 -5 3 -7 14 -5
25 2 11 0 22 -6 25 -12 8 -12 25 1 25 6 0 15 -11 20 -25z m-105 -25 c-8 -13 6
-40 21 -40 16 0 17 -2 4 -57 -6 -26 -6 -51 -1 -67 8 -19 6 -28 -9 -41 -21 -19
-39 -3 -21 19 9 10 7 15 -6 21 -17 6 -17 7 -1 19 13 10 15 15 6 24 -9 9 -9 12
0 12 10 0 10 5 2 20 -7 14 -7 20 0 20 17 0 11 22 -12 47 -19 20 -20 26 -8 33
16 10 33 3 25 -10z m-641 -19 c8 -12 -14 -28 -36 -28 -17 0 -17 1 0 18 19 20
28 23 36 10z m546 -13 c0 -19 -2 -20 -10 -8 -13 19 -13 30 0 30 6 0 10 -10 10
-22z m310 -15 c0 -18 -17 -16 -24 3 -8 22 4 40 15 23 5 -8 9 -20 9 -26z m-280
-56 c0 -5 -7 -4 -15 3 -8 7 -15 20 -15 29 1 13 3 13 15 -3 8 -11 15 -24 15
-29z m-616 18 c-4 -8 -8 -15 -10 -15 -2 0 -4 7 -4 15 0 8 4 15 10 15 5 0 7 -7
4 -15z m753 -7 c-3 -8 -6 -5 -6 6 -1 11 2 17 5 13 3 -3 4 -12 1 -19z m-997
-14 c0 -2 -7 -4 -15 -4 -8 0 -15 4 -15 10 0 5 7 7 15 4 8 -4 15 -8 15 -10z
m275 -22 c-6 -7 -34 11 -29 19 3 5 11 3 19 -4 7 -6 12 -13 10 -15z m895 8 c0
-5 -2 -10 -4 -10 -3 0 -8 5 -11 10 -3 6 -1 10 4 10 6 0 11 -4 11 -10z m-320
-25 c14 -19 14 -19 -2 -6 -10 7 -18 18 -18 24 0 6 1 8 3 6 1 -2 9 -13 17 -24z
m190 5 c-6 -11 -13 -20 -15 -20 -3 0 -5 9 -5 20 0 11 7 20 15 20 13 0 14 -4 5
-20z m160 10 c0 -5 -4 -10 -10 -10 -5 0 -10 5 -10 10 0 6 5 10 10 10 6 0 10
-4 10 -10z m-40 -41 c0 -6 -5 -7 -11 -3 -6 3 -15 0 -20 -7 -7 -11 -9 -11 -9 3
0 17 19 29 33 21 4 -2 7 -9 7 -14z m-876 -11 c-4 -34 -4 -34 -15 -15 -5 9 -7
22 -4 27 11 18 22 11 19 -12z m583 -10 c-3 -8 -6 -5 -6 6 -1 11 2 17 5 13 3
-3 4 -12 1 -19z m683 -2 c0 -2 -7 -6 -15 -10 -8 -3 -15 -1 -15 4 0 6 7 10 15
10 8 0 15 -2 15 -4z m7 -31 c0 -8 -4 -12 -9 -9 -5 3 -6 10 -3 15 9 13 12 11
12 -6z m-377 -45 c0 -10 -4 -21 -9 -24 -12 -8 -22 20 -15 39 8 19 24 9 24 -15z
m190 14 c0 -8 -4 -12 -10 -9 -5 3 -10 10 -10 16 0 5 5 9 10 9 6 0 10 -7 10
-16z m200 -4 c0 -5 -4 -10 -10 -10 -10 0 -8 -50 4 -68 5 -8 1 -10 -8 -6 -17 7
-22 -11 -6 -21 12 -7 14 -55 2 -55 -4 0 -8 8 -9 18 -1 9 -3 36 -5 59 -3 27
-11 49 -24 59 -16 13 -16 15 -2 10 10 -3 24 1 30 9 15 17 28 19 28 5z m-560
-7 c0 -5 -4 -15 -10 -23 -11 -18 -25 -7 -17 15 6 15 27 21 27 8z m407 -34 c3
-17 12 -30 22 -30 46 -4 62 -7 68 -13 3 -3 -5 -6 -18 -6 -19 0 -21 -2 -9 -10
13 -8 12 -10 -2 -10 -24 0 -33 4 -30 13 1 4 -7 7 -19 7 -12 0 -23 8 -26 20 -3
11 -10 20 -15 20 -5 0 -6 5 -3 10 3 6 -1 10 -11 10 -13 0 -14 3 -4 14 17 21
40 8 47 -25z m-75 -16 c-6 -9 -17 -18 -25 -19 -13 -2 -14 1 -4 17 15 24 42 26
29 2z m293 -4 c4 -11 4 -23 1 -27 -8 -7 -36 30 -30 40 9 14 23 8 29 -13z
m-655 -4 c0 -8 -4 -15 -10 -15 -5 0 -7 7 -4 15 4 8 8 15 10 15 2 0 4 -7 4 -15z
m-42 -46 c26 -9 31 -16 34 -55 3 -43 -10 -63 -33 -48 -5 3 -10 -1 -10 -8 -1
-7 -5 3 -9 22 -4 19 -13 50 -18 68 -12 35 -9 37 36 21z m372 -25 c0 -8 -4 -12
-10 -9 -5 3 -10 13 -10 21 0 8 5 12 10 9 6 -3 10 -13 10 -21z m-113 -6 c-3 -8
-6 -5 -6 6 -1 11 2 17 5 13 3 -3 4 -12 1 -19z m390 -50 c-3 -8 -6 -5 -6 6 -1
11 2 17 5 13 3 -3 4 -12 1 -19z"/>
<path d="M4415 1999 c-4 -6 -5 -12 -2 -15 2 -3 7 2 10 11 7 17 1 20 -8 4z"/>
<path d="M4400 1954 c0 -8 5 -12 10 -9 6 4 8 11 5 16 -9 14 -15 11 -15 -7z"/>
<path d="M4507 1856 c-4 -10 -5 -21 -2 -24 9 -9 17 6 13 25 -3 17 -4 17 -11
-1z"/>
<path d="M4575 1831 c-3 -5 0 -13 6 -17 8 -4 8 -9 1 -13 -7 -4 -8 -12 -2 -21
9 -13 10 -13 11 0 1 8 3 25 4 38 2 22 -9 30 -20 13z"/>
<path d="M4427 1794 c-9 -16 8 -35 26 -28 18 7 23 24 7 24 -5 0 -10 -6 -11
-12 0 -7 -4 -4 -8 6 -4 11 -10 15 -14 10z"/>
<path d="M4530 1540 c0 -5 5 -10 11 -10 5 0 7 5 4 10 -3 6 -8 10 -11 10 -2 0
-4 -4 -4 -10z"/>
<path d="M4500 1520 c0 -5 5 -10 10 -10 6 0 10 5 10 10 0 6 -4 10 -10 10 -5 0
-10 -4 -10 -10z"/>
<path d="M3740 1120 c0 -5 5 -10 11 -10 5 0 7 5 4 10 -3 6 -8 10 -11 10 -2 0
-4 -4 -4 -10z"/>
<path d="M3900 1120 c0 -5 4 -10 9 -10 6 0 13 5 16 10 3 6 -1 10 -9 10 -9 0
-16 -4 -16 -10z"/>
<path d="M4017 1116 c-16 -13 -16 -14 -1 -20 9 -4 14 -9 11 -13 -4 -3 3 -17
14 -31 14 -18 16 -28 8 -32 -7 -5 -8 -10 -1 -14 25 -15 26 85 1 109 -12 11
-17 12 -32 1z m33 -35 c9 -19 9 -22 -1 -19 -7 2 -14 15 -16 28 -4 27 -1 25 17
-9z"/>
<path d="M4072 1008 c6 -18 28 -21 28 -4 0 9 -7 16 -16 16 -9 0 -14 -5 -12
-12z"/>
<path d="M3155 1000 c-3 -6 1 -7 9 -4 18 7 21 14 7 14 -6 0 -13 -4 -16 -10z"/>
<path d="M4105 989 c-4 -6 -3 -15 3 -21 6 -6 11 -4 15 6 7 18 -9 31 -18 15z"/>
<path d="M3180 970 c0 -5 4 -10 9 -10 6 0 13 5 16 10 3 6 -1 10 -9 10 -9 0
-16 -4 -16 -10z"/>
<path d="M4134 948 c1 -13 15 -42 30 -66 14 -23 25 -46 22 -50 -2 -4 7 -21 20
-37 20 -25 24 -27 24 -11 0 18 1 18 20 1 12 -11 20 -13 20 -6 0 6 -7 14 -15
17 -8 4 -15 14 -15 23 0 12 -2 13 -9 3 -6 -10 -12 -4 -21 20 -12 30 -70 128
-76 128 -1 0 -2 -10 0 -22z"/>
<path d="M3006 895 c4 -27 7 -88 6 -134 -2 -92 -7 -88 68 -65 22 7 24 6 11 -9
-15 -18 -5 -22 19 -7 8 5 19 5 25 1 5 -4 31 -14 57 -21 43 -11 50 -11 82 10
27 16 48 21 83 18 39 -2 48 0 51 15 2 12 -3 17 -20 17 -27 0 -55 16 -46 26 10
10 -19 35 -42 37 -14 1 -20 8 -20 24 0 27 -15 30 -28 6 -9 -14 -14 -15 -41 -3
-18 7 -37 20 -44 30 -14 20 -52 34 -87 32 -31 -3 -43 5 -64 43 l-17 30 7 -50z"/>
<path d="M4030 923 c0 -5 7 -18 15 -29 15 -18 15 -18 13 5 -3 23 -28 44 -28
24z"/>
<path d="M4110 916 c0 -8 5 -18 10 -21 6 -3 10 1 10 9 0 8 -4 18 -10 21 -5 3
-10 -1 -10 -9z"/>
<path d="M555 900 c-3 -5 -1 -10 4 -10 6 0 11 5 11 10 0 6 -2 10 -4 10 -3 0
-8 -4 -11 -10z"/>
<path d="M2675 900 c-18 -7 -18 -9 10 -19 16 -7 41 -9 55 -6 l25 7 -25 13
c-28 16 -37 17 -65 5z"/>
<path d="M2500 880 c0 -5 5 -10 10 -10 6 0 10 5 10 10 0 6 -4 10 -10 10 -5 0
-10 -4 -10 -10z"/>
<path d="M2968 864 c-5 -4 -8 -16 -8 -28 0 -14 3 -17 11 -9 6 6 9 19 7 28 -1
9 -6 13 -10 9z"/>
<path d="M3897 850 c-19 -23 -22 -46 -6 -55 17 -11 23 3 9 20 -10 12 -9 16 5
21 10 4 21 1 26 -7 7 -10 9 -8 7 10 -4 32 -19 36 -41 11z"/>
<path d="M4120 855 c0 -8 5 -15 10 -15 6 0 10 7 10 15 0 8 -4 15 -10 15 -5 0
-10 -7 -10 -15z"/>
<path d="M4050 832 c25 -34 54 -42 63 -18 5 13 -9 24 -38 32 -5 1 -19 5 -29
10 -17 6 -16 4 4 -24z"/>
<path d="M450 840 c-9 -6 -10 -10 -3 -10 6 0 15 5 18 10 8 12 4 12 -15 0z"/>
<path d="M2475 840 c-3 -5 -1 -10 4 -10 6 0 11 5 11 10 0 6 -2 10 -4 10 -3 0
-8 -4 -11 -10z"/>
<path d="M493 823 c-3 -10 -8 -21 -10 -25 -2 -5 -1 -8 4 -8 4 0 13 11 20 25 6
14 7 25 2 25 -5 0 -12 -8 -16 -17z"/>
<path d="M2403 828 c1 -7 -3 -12 -8 -11 -6 1 -11 -7 -11 -16 0 -15 3 -16 18
-7 10 6 18 15 18 20 0 4 8 2 18 -5 14 -11 13 -10 -2 9 -21 24 -37 29 -33 10z"/>
<path d="M3195 830 c4 -6 11 -8 16 -5 5 4 9 1 9 -5 0 -6 5 -8 10 -5 15 9 2 25
-21 25 -11 0 -17 -5 -14 -10z"/>
<path d="M2485 810 c-3 -5 -1 -10 4 -10 6 0 11 5 11 10 0 6 -2 10 -4 10 -3 0
-8 -4 -11 -10z"/>
<path d="M666 795 c4 -8 11 -15 16 -15 6 0 5 6 -2 15 -7 8 -14 15 -16 15 -2 0
-1 -7 2 -15z"/>
<path d="M450 780 c-13 -8 -12 -10 3 -10 9 0 17 5 17 10 0 12 -1 12 -20 0z"/>
<path d="M511 777 c-1 -5 8 -21 19 -37 11 -15 17 -30 13 -34 -3 -3 -2 -6 4 -6
6 0 13 12 16 26 3 18 1 24 -9 20 -8 -3 -14 1 -14 10 0 8 -4 13 -9 10 -5 -4
-12 0 -14 6 -3 7 -6 9 -6 5z"/>
<path d="M555 770 c3 -5 8 -10 11 -10 2 0 4 5 4 10 0 6 -5 10 -11 10 -5 0 -7
-4 -4 -10z"/>
<path d="M2345 769 c-4 -5 -18 -15 -32 -20 -14 -5 -23 -12 -19 -16 3 -3 -1
-15 -11 -25 -9 -10 -13 -18 -8 -18 4 0 -4 -15 -18 -34 -24 -31 -26 -46 -5 -46
5 0 12 10 17 22 5 13 10 17 14 11 4 -6 -5 -25 -19 -43 -25 -29 -25 -32 -9 -44
16 -12 15 -15 -16 -39 -20 -16 -36 -22 -40 -16 -7 12 -81 -6 -118 -30 -24 -15
-24 -15 -19 12 7 36 -9 24 -17 -13 -4 -17 -12 -30 -19 -30 -7 0 -21 -9 -31
-20 -18 -20 -18 -21 6 -37 13 -10 33 -27 45 -38 11 -11 34 -25 50 -31 16 -6
36 -14 44 -18 20 -8 81 74 78 104 -2 13 3 25 12 27 13 4 13 3 0 -6 -8 -5 -11
-13 -7 -17 10 -11 39 17 33 33 -3 8 1 16 9 20 12 4 13 9 4 19 -6 8 -15 11 -20
8 -5 -3 -9 2 -9 10 0 19 16 21 27 4 10 -16 49 -38 65 -38 8 1 6 6 -6 15 -10 7
-15 19 -11 25 5 8 12 6 25 -5 17 -16 19 -15 30 4 14 27 6 41 -21 34 -18 -5
-20 -3 -14 16 5 15 2 21 -9 21 -9 0 -16 5 -16 11 0 6 8 9 19 6 13 -3 29 8 52
35 19 22 40 46 47 53 18 20 14 30 -5 13 -10 -8 -26 -18 -36 -21 -15 -6 -18 -2
-15 21 2 22 8 28 36 30 17 2 32 7 32 11 0 13 -70 7 -78 -6 -9 -15 -54 -13 -49
2 2 5 16 16 30 23 15 7 27 17 27 23 0 12 -17 12 -25 -2z m-55 -199 c-18 -11
-22 -7 -14 14 5 13 10 14 18 6 8 -8 7 -13 -4 -20z m-90 -139 c0 -6 -4 -13 -10
-16 -5 -3 -10 1 -10 9 0 9 5 16 10 16 6 0 10 -4 10 -9z"/>
<path d="M425 743 c-12 -11 -15 -26 -12 -49 3 -18 2 -34 -3 -36 -13 -4 -19
-60 -9 -79 16 -31 45 -28 77 6 29 30 35 55 19 71 -4 4 -7 2 -7 -4 0 -7 -4 -12
-9 -12 -5 0 -4 18 2 41 8 32 12 38 19 25 5 -9 13 -16 19 -16 5 0 4 9 -3 20
-13 20 -48 28 -48 10 0 -5 -7 -7 -16 -3 -11 4 -12 9 -5 16 6 6 11 15 11 19 0
13 -18 9 -35 -9z m34 -52 c8 -5 9 -11 3 -15 -13 -8 -42 3 -42 15 0 11 21 11
39 0z m16 -91 c-6 -9 -10 -8 -17 4 -5 9 -13 14 -18 11 -5 -3 -12 0 -16 6 -3 6
0 15 7 20 18 11 55 -24 44 -41z m-25 -20 c0 -5 -5 -10 -11 -10 -5 0 -7 5 -4
10 3 6 8 10 11 10 2 0 4 -4 4 -10z"/>
<path d="M4010 730 c0 -5 5 -10 10 -10 6 0 10 5 10 10 0 6 -4 10 -10 10 -5 0
-10 -4 -10 -10z"/>
<path d="M4250 725 c7 -8 17 -15 22 -15 6 0 5 7 -2 15 -7 8 -17 15 -22 15 -6
0 -5 -7 2 -15z"/>
<path d="M4300 706 c0 -2 7 -7 16 -10 8 -3 12 -2 9 4 -6 10 -25 14 -25 6z"/>
<path d="M4346 655 c4 -8 8 -15 10 -15 2 0 4 7 4 15 0 8 -4 15 -10 15 -5 0 -7
-7 -4 -15z"/>
<path d="M4270 643 c0 -10 13 -32 28 -48 15 -17 24 -26 20 -21 -3 4 -4 15 -1
22 4 11 9 12 19 3 21 -17 28 -4 9 14 -8 9 -22 14 -31 10 -10 -4 -17 2 -21 16
-6 25 -23 28 -23 4z"/>
<path d="M3180 640 c0 -5 7 -10 16 -10 8 0 12 5 9 10 -3 6 -10 10 -16 10 -5 0
-9 -4 -9 -10z"/>
<path d="M4460 640 c0 -5 5 -10 10 -10 6 0 10 5 10 10 0 6 -4 10 -10 10 -5 0
-10 -4 -10 -10z"/>
<path d="M358 633 c6 -2 18 -2 25 0 6 3 1 5 -13 5 -14 0 -19 -2 -12 -5z"/>
<path d="M4365 630 c-3 -5 -1 -10 5 -10 6 0 8 -4 5 -10 -3 -6 1 -7 9 -4 9 3
16 12 16 20 0 16 -26 19 -35 4z"/>
<path d="M4419 617 c7 -9 19 -16 25 -15 6 1 31 -8 55 -20 l44 -22 -24 26 -24
26 24 -7 c17 -5 22 -4 18 6 -2 8 -11 12 -18 10 -32 -10 -85 -8 -99 2 -13 11
-13 10 -1 -6z"/>
<path d="M336 613 c-4 -5 -32 -11 -53 -12 -7 -1 -13 -10 -13 -20 0 -11 6 -22
13 -24 7 -3 5 -6 -6 -6 -10 -1 -22 9 -27 22 -9 22 -9 22 -10 -3 0 -20 -2 -22
-10 -10 -8 12 -10 11 -10 -6 0 -19 4 -20 43 -14 48 7 94 39 74 52 -7 4 -7 8
-1 8 5 0 19 -6 29 -14 19 -14 19 -15 -5 -35 l-25 -21 28 10 c16 6 33 7 39 4
11 -7 11 -5 -11 38 -12 24 -43 42 -55 31z"/>
<path d="M4380 579 c0 -5 -5 -7 -12 -3 -8 5 -9 0 -5 -15 4 -17 2 -21 -9 -17
-19 7 -18 -3 6 -41 12 -21 25 -31 34 -27 8 3 24 1 35 -6 20 -10 20 -9 9 17 -7
15 -18 36 -27 46 -8 9 -11 20 -7 24 4 4 16 -3 26 -17 17 -23 19 -23 26 -7 5
15 9 16 15 5 7 -10 9 -9 9 4 0 19 -28 38 -47 31 -7 -3 -13 0 -13 6 0 6 -9 11
-20 11 -11 0 -20 -5 -20 -11z"/>
<path d="M778 563 c7 -3 16 -2 19 1 4 3 -2 6 -13 5 -11 0 -14 -3 -6 -6z"/>
<path d="M2098 552 c-12 -15 -11 -16 5 -3 15 12 20 12 26 2 7 -10 9 -10 14 1
7 20 -29 20 -45 0z"/>
<path d="M636 534 c5 -21 4 -25 -6 -19 -10 6 -12 4 -7 -8 4 -12 1 -17 -11 -17
-15 -1 -15 -2 2 -11 14 -9 20 -8 26 1 6 9 9 9 13 -1 4 -10 6 -9 6 4 1 9 -4 17
-9 17 -7 0 -7 6 -1 18 6 12 5 21 -5 30 -13 12 -14 10 -8 -14z"/>
<path d="M555 528 c-11 -12 -14 -18 -7 -14 7 4 15 1 18 -7 3 -9 13 -13 25 -10
10 3 16 9 14 14 -3 4 -13 5 -21 2 -13 -5 -15 -1 -9 15 8 27 6 27 -20 0z"/>
<path d="M738 543 c7 -3 16 -2 19 1 4 3 -2 6 -13 5 -11 0 -14 -3 -6 -6z"/>
<path d="M391 493 c-10 -26 -10 -27 4 -9 8 11 15 23 15 28 0 15 -7 8 -19 -19z"/>
<path d="M485 490 c18 -20 14 -24 -27 -34 -29 -7 -36 -20 -17 -31 6 -4 17 1
24 11 14 18 14 18 15 1 0 -10 4 -16 10 -12 5 3 7 12 4 20 -4 8 1 17 9 21 21 8
10 40 -15 41 -19 2 -19 1 -3 -17z"/>
<path d="M4500 500 c0 -5 5 -10 11 -10 5 0 7 5 4 10 -3 6 -8 10 -11 10 -2 0
-4 -4 -4 -10z"/>
<path d="M356 454 c-3 -8 -10 -13 -15 -10 -11 7 -23 -22 -15 -35 3 -5 2 -9 -3
-8 -4 1 -10 0 -13 -1 -11 -6 -60 -6 -60 0 0 3 14 11 30 17 17 6 30 18 30 27 0
18 -16 21 -26 5 -3 -6 -16 -8 -27 -5 -14 3 -28 -3 -43 -19 -15 -16 -24 -20
-27 -12 -4 9 -8 8 -16 -3 -9 -12 -4 -16 29 -18 22 -2 40 -8 40 -14 0 -6 -10
-8 -27 -3 -23 5 -25 4 -14 -9 7 -9 17 -14 21 -11 5 3 6 -4 3 -15 -6 -23 15
-28 23 -5 4 8 10 12 15 9 5 -3 9 1 9 9 0 8 15 20 33 28 38 15 50 30 34 42 -7
5 -3 6 11 2 19 -5 22 -3 22 19 0 30 -5 33 -14 10z"/>
<path d="M551 459 c0 -9 8 -24 19 -34 11 -10 20 -25 20 -34 0 -14 2 -14 10 -1
5 8 9 24 9 35 0 11 -3 14 -6 8 -7 -18 -23 -16 -23 3 0 8 -4 13 -9 9 -5 -3 -12
3 -14 12 -4 15 -5 15 -6 2z"/>
<path d="M672 455 c-7 -8 -9 -15 -4 -15 5 0 15 7 22 15 16 19 -1 19 -18 0z"/>
<path d="M636 451 c-4 -7 -5 -15 -2 -18 9 -9 19 4 14 18 -4 11 -6 11 -12 0z"/>
<path d="M4537 449 c7 -7 15 -10 18 -7 3 3 -2 9 -12 12 -14 6 -15 5 -6 -5z"/>
<path d="M521 433 c-7 -8 -10 -17 -7 -20 9 -9 29 13 25 25 -2 6 -10 3 -18 -5z"/>
<path d="M730 426 c0 -2 7 -7 16 -10 8 -3 12 -2 9 4 -6 10 -25 14 -25 6z"/>
<path d="M4520 415 c7 -8 17 -12 22 -9 6 4 5 10 -3 15 -22 14 -33 10 -19 -6z"/>
<path d="M648 407 c-16 -6 -28 -15 -28 -20 0 -4 5 -5 10 -2 6 3 10 0 10 -7 0
-10 2 -11 8 0 5 7 16 10 25 6 10 -3 17 -1 17 5 0 6 -6 11 -12 11 -9 0 -8 4 2
10 19 12 3 11 -32 -3z"/>
<path d="M701 403 c0 -12 2 -14 6 -4 5 11 7 11 15 0 8 -12 9 -12 6 0 -6 22
-28 25 -27 4z"/>
<path d="M386 396 c4 -9 1 -16 -6 -16 -9 0 -9 -4 1 -17 10 -11 10 -14 2 -9
-12 6 -19 -18 -14 -47 1 -5 -3 -5 -9 -2 -6 4 -21 -1 -32 -12 -20 -18 -21 -18
-13 7 7 21 6 23 -7 13 -8 -7 -19 -9 -23 -5 -5 4 -5 2 -2 -5 4 -6 1 -14 -5 -17
-10 -4 -10 -8 -2 -11 7 -3 10 -16 7 -28 -4 -18 -3 -19 6 -7 8 11 11 12 11 2 0
-7 5 -10 11 -7 6 4 8 14 5 22 -3 8 -1 11 4 8 5 -3 7 -19 3 -35 -3 -20 -1 -30
6 -30 7 0 9 5 6 10 -4 6 1 22 9 35 10 15 12 25 6 25 -6 0 -8 5 -5 10 3 6 13
10 21 10 9 0 12 -5 8 -12 -5 -7 -2 -9 9 -5 11 4 14 2 10 -9 -3 -7 -1 -14 3
-14 10 0 54 65 54 80 0 5 9 14 21 21 17 9 25 7 45 -12 13 -12 24 -18 24 -12 0
6 -5 13 -12 15 -7 3 -9 12 -5 22 4 10 13 16 21 13 8 -3 17 1 20 8 4 11 0 12
-20 5 -37 -15 -64 -12 -64 6 0 8 -5 12 -10 9 -6 -4 -9 -9 -6 -13 2 -4 -6 -16
-17 -27 l-20 -20 7 28 c7 31 0 34 -26 10 -16 -15 -18 -15 -13 -1 4 9 2 19 -4
23 -7 3 -8 0 -5 -9z m20 -62 c-4 -9 -9 -15 -11 -12 -3 3 -3 13 1 22 4 9 9 15
11 12 3 -3 3 -13 -1 -22z m24 -24 c0 -5 -4 -10 -10 -10 -5 0 -10 5 -10 10 0 6
5 10 10 10 6 0 10 -4 10 -10z"/>
<path d="M4480 385 c-14 -8 -23 -15 -20 -15 3 -1 15 -3 27 -4 28 -3 43 -16 20
-16 -9 0 -17 -3 -17 -7 1 -13 38 -53 49 -53 6 0 11 -4 11 -10 0 -5 9 -10 20
-10 25 0 25 1 -1 45 -16 27 -24 33 -30 23 -6 -9 -9 -7 -9 8 0 11 -6 28 -12 37
-12 14 -16 14 -38 2z"/>
<path d="M109 390 c0 -3 -2 -14 -4 -25 -5 -27 5 -65 17 -65 5 0 7 4 3 9 -3 5
-1 12 4 16 11 6 31 -25 31 -47 0 -9 -3 -9 -10 2 -8 13 -10 12 -10 -2 0 -20 4
-21 38 -12 25 7 30 24 7 24 -14 0 -19 11 -16 38 1 6 -3 12 -10 12 -6 0 -9 8
-6 19 3 14 1 18 -10 14 -8 -3 -19 0 -24 8 -5 8 -9 12 -10 9z"/>
<path d="M4580 370 c0 -5 5 -10 10 -10 6 0 10 5 10 10 0 6 -4 10 -10 10 -5 0
-10 -4 -10 -10z"/>
<path d="M590 349 c0 -5 5 -7 10 -4 6 3 10 8 10 11 0 2 -4 4 -10 4 -5 0 -10
-5 -10 -11z"/>
<path d="M335 330 c3 -5 8 -10 11 -10 2 0 4 5 4 10 0 6 -5 10 -11 10 -5 0 -7
-4 -4 -10z"/>
<path d="M4472 308 c5 -15 28 -23 28 -10 0 5 -7 13 -16 16 -10 4 -14 1 -12 -6z"/>
<path d="M4555 240 c-3 -6 1 -7 9 -4 18 7 21 14 7 14 -6 0 -13 -4 -16 -10z"/>
<path d="M4438 233 c7 -3 16 -2 19 1 4 3 -2 6 -13 5 -11 0 -14 -3 -6 -6z"/>
<path d="M206 215 c-9 -26 -7 -32 5 -12 6 10 9 21 6 23 -2 3 -7 -2 -11 -11z"/>
<path d="M3996 198 c-20 -18 -52 -46 -71 -61 -36 -30 -38 -47 -4 -47 11 0 24
11 32 27 6 14 29 43 49 64 34 35 44 49 34 49 -2 0 -20 -15 -40 -32z"/>
<path d="M550 210 c0 -5 5 -10 11 -10 5 0 7 5 4 10 -3 6 -8 10 -11 10 -2 0 -4
-4 -4 -10z"/>
<path d="M4280 209 c0 -5 5 -7 10 -4 6 3 10 8 10 11 0 2 -4 4 -10 4 -5 0 -10
-5 -10 -11z"/>
<path d="M4335 210 c-16 -7 -17 -9 -3 -9 9 -1 20 4 23 9 7 11 7 11 -20 0z"/>
<path d="M3135 163 c-13 -25 -27 -38 -40 -38 -11 0 -19 -5 -18 -12 2 -7 -5
-17 -15 -22 -14 -7 -17 -19 -14 -51 l4 -41 90 2 c66 1 91 5 95 15 3 8 11 14
18 14 7 0 15 7 19 15 3 8 15 15 26 15 24 0 25 -6 5 -26 -28 -28 -15 -34 73
-34 l87 1 -27 22 c-43 35 -141 102 -147 101 -66 -13 -68 -13 -79 12 -7 13 -20
24 -31 24 -12 0 -21 8 -23 20 -2 17 -7 13 -23 -17z m59 -48 c11 -8 15 -15 9
-15 -19 0 -43 12 -43 21 0 13 12 11 34 -6z m-62 -50 c11 -14 10 -25 -3 -25
-11 0 -39 25 -39 35 0 9 34 1 42 -10z m58 4 c0 -5 5 -7 10 -4 6 3 10 1 10 -4
0 -16 -16 -13 -30 4 -9 10 -9 15 -1 15 6 0 11 -5 11 -11z"/>
<path d="M4415 185 c-19 -14 -18 -14 13 -15 22 0 32 4 30 12 -6 18 -22 20 -43
3z"/>
<path d="M4030 150 c-14 -10 -21 -22 -17 -26 4 -4 17 2 29 14 28 28 20 36 -12
12z"/>
<path d="M4195 160 c-3 -6 1 -13 10 -16 19 -8 30 0 20 15 -8 14 -22 14 -30 1z"/>
<path d="M4440 147 c-43 -22 -70 -51 -59 -62 9 -9 117 -11 126 -2 4 5 0 13
-10 18 -22 13 -22 38 1 55 30 23 -9 17 -58 -9z"/>
<path d="M250 156 c0 -9 30 -14 35 -6 4 6 -3 10 -14 10 -12 0 -21 -2 -21 -4z"/>
<path d="M4150 142 c-16 -5 -40 -31 -40 -44 0 -4 8 -5 18 -2 11 4 8 -1 -8 -15
-20 -17 -22 -23 -11 -30 7 -5 10 -14 7 -20 -13 -20 3 -11 41 24 25 23 34 38
27 43 -7 4 -14 16 -15 28 -3 13 -10 19 -19 16z"/>
<path d="M4336 131 c-4 -6 -13 -8 -20 -5 -8 3 -17 1 -21 -5 -3 -6 -15 -11 -26
-11 -11 0 -22 -7 -25 -15 -4 -8 -12 -15 -19 -15 -7 0 -15 -3 -17 -8 -1 -4 -15
-16 -29 -27 -21 -17 -24 -23 -13 -33 10 -9 14 -8 19 7 5 16 13 18 44 14 23 -3
41 -1 45 6 4 6 2 11 -3 11 -18 0 -12 19 10 30 14 8 24 8 33 1 9 -8 19 -5 35
13 19 20 20 25 7 35 -9 8 -16 8 -20 2z"/>
<path d="M330 99 c0 -6 -6 -9 -14 -6 -15 6 -56 -18 -69 -40 -4 -7 -15 -13 -22
-13 -17 0 -19 -9 -7 -28 6 -8 29 -12 70 -11 34 1 59 6 56 10 -3 5 -12 9 -20 9
-8 0 -14 7 -14 15 0 8 7 15 16 15 9 0 12 -5 8 -12 -4 -6 -3 -8 3 -5 14 9 24
47 12 47 -4 0 -6 7 -3 15 4 8 1 15 -5 15 -6 0 -11 -5 -11 -11z m10 -30 c0 -5
-9 -9 -20 -9 -11 0 -20 4 -20 8 0 4 9 8 20 9 11 1 20 -2 20 -8z"/>
<path d="M215 90 c-3 -5 -1 -10 4 -10 6 0 11 5 11 10 0 6 -2 10 -4 10 -3 0 -8
-4 -11 -10z"/>
<path d="M3013 60 c0 -25 2 -35 4 -22 2 12 2 32 0 45 -2 12 -4 2 -4 -23z"/>
<path d="M367 65 c-4 -8 -2 -17 2 -20 5 -2 11 4 14 15 6 23 -8 27 -16 5z"/>
<path d="M3834 62 c1 -14 -6 -16 -38 -14 -38 4 -56 -7 -56 -35 0 -19 38 -16
48 4 9 16 11 15 27 -1 14 -13 20 -14 32 -5 9 8 10 14 3 19 -6 4 -8 14 -5 22 4
9 2 19 -3 22 -5 3 -9 -2 -8 -12z"/>
<path d="M557 63 c-4 -3 -7 -11 -7 -17 0 -6 5 -5 12 2 6 6 9 14 7 17 -3 3 -9
2 -12 -2z"/>
<path d="M4513 44 c-32 -36 -29 -54 3 -22 15 14 25 31 23 36 -2 6 -14 0 -26
-14z"/>
<path d="M592 51 c-11 -6 -9 -9 6 -13 15 -4 19 -2 15 8 -6 16 -4 16 -21 5z"/>
<path d="M393 26 c0 -22 4 -26 28 -26 19 0 29 5 29 15 0 13 -12 17 -36 14 -4
0 -10 5 -14 11 -4 7 -7 1 -7 -14z"/>
<path d="M4010 35 c0 -8 -7 -15 -15 -15 -8 0 -15 -4 -15 -10 0 -18 39 -11 50
9 13 26 13 31 -5 31 -8 0 -15 -7 -15 -15z"/>
<path d="M190 23 c0 -13 5 -23 10 -23 13 0 13 11 0 30 -8 12 -10 11 -10 -7z"/>
<path d="M475 20 c-3 -6 1 -7 9 -4 18 7 21 14 7 14 -6 0 -13 -4 -16 -10z"/>
<path d="M510 15 c0 -7 7 -12 15 -11 24 4 27 13 5 19 -13 3 -20 0 -20 -8z"/>
<path d="M576 13 c-6 -14 -5 -15 5 -6 7 7 10 15 7 18 -3 3 -9 -2 -12 -12z"/>
<path d="M4580 15 c0 -8 5 -15 10 -15 6 0 10 7 10 15 0 8 -4 15 -10 15 -5 0
-10 -7 -10 -15z"/>
<path d="M4310 10 c-22 -7 -21 -8 13 -9 20 -1 37 4 37 9 0 11 -14 11 -50 0z"/>
</g>
</svg>
